<svg xmlns="http://www.w3.org/2000/svg" xmlns:xlink="http://www.w3.org/1999/xlink" fill="none" version="1.1" width="18" height="22" viewBox="0 0 18 22"><g><path d="M0.87868,0.87868C1.44129,0.31607,2.20435,0,3,0C3,0,11,0,11,0C11.2652,0,11.5196,0.105357,11.7071,0.292893C11.7071,0.292893,17.7071,6.29289,17.7071,6.29289C17.8946,6.48043,18,6.73478,18,7C18,7,18,19,18,19C18,19.7957,17.6839,20.5587,17.1213,21.1213C16.5587,21.6839,15.7957,22,15,22C15,22,3,22,3,22C2.20435,22,1.44129,21.6839,0.87868,21.1213C0.31607,20.5587,0,19.7957,0,19C0,19,0,3,0,3C0,2.20435,0.31607,1.44129,0.87868,0.87868C0.87868,0.87868,0.87868,0.87868,0.87868,0.87868ZM3,2C2.73478,2,2.48043,2.10536,2.29289,2.29289C2.10536,2.48043,2,2.73478,2,3C2,3,2,19,2,19C2,19.2652,2.10536,19.5196,2.29289,19.7071C2.48043,19.8946,2.73478,20,3,20C3,20,15,20,15,20C15.2652,20,15.5196,19.8946,15.7071,19.7071C15.8946,19.5196,16,19.2652,16,19C16,19,16,8,16,8C16,8,11,8,11,8C10.4477,8,10,7.55228,10,7C10,7,10,2,10,2C10,2,3,2,3,2C3,2,3,2,3,2ZM12,3.41421C12,3.41421,14.5858,6,14.5858,6C14.5858,6,12,6,12,6C12,6,12,3.41421,12,3.41421C12,3.41421,12,3.41421,12,3.41421ZM4,8C4,7.44772,4.44772,7,5,7C5,7,7,7,7,7C7.55228,7,8,7.44772,8,8C8,8.55228,7.55228,9,7,9C7,9,5,9,5,9C4.44772,9,4,8.55228,4,8C4,8,4,8,4,8ZM4,12C4,11.4477,4.44772,11,5,11C5,11,13,11,13,11C13.5523,11,14,11.4477,14,12C14,12.5523,13.5523,13,13,13C13,13,5,13,5,13C4.44772,13,4,12.5523,4,12C4,12,4,12,4,12ZM4,16C4,15.4477,4.44772,15,5,15C5,15,13,15,13,15C13.5523,15,14,15.4477,14,16C14,16.5523,13.5523,17,13,17C13,17,5,17,5,17C4.44772,17,4,16.5523,4,16C4,16,4,16,4,16Z" fill-rule="evenodd" fill="#0256FF" fill-opacity="1"/></g></svg>