<svg xmlns="http://www.w3.org/2000/svg" xmlns:xlink="http://www.w3.org/1999/xlink" fill="none" version="1.1" width="19.799999952316284" height="18.903984785079956" viewBox="0 0 19.799999952316284 18.903984785079956"><g><path d="M3.062065976158142,3.069742076158142Q3.533305076158142,4.279426476158142,2.885196176158142,5.401989776158142Q2.236666176158142,6.525271776158142,0.9524769451581421,6.721490276158142L0.3344634161581421,6.815919776158142L0.20724540615814213,7.428025576158142Q-3.8418579428878274e-9,8.425180276158141,-3.8418579428878274e-9,9.452005776158142Q-3.8418579428878274e-9,10.478880276158142,0.20724993615814213,11.475934976158142L0.33447152615814213,12.087983976158142L0.9524251071581421,12.182441976158142Q2.236680976158142,12.378746976158142,2.885208176158142,13.502024976158141Q3.533330276158142,14.624541976158142,3.0620752761581422,15.834164976158142L2.8355965761581423,16.415491976158144L3.3005050761581423,16.831538976158143Q4.846015376158142,18.214612976158143,6.807034876158142,18.859004976158143L7.400334276158142,19.05396497615814L7.790608776158142,18.56641997615814Q8.602640076158142,17.552003976158144,9.899998976158143,17.552003976158144Q11.197304976158142,17.552003976158144,12.009469976158142,18.566463976158143L12.399747976158142,19.053951976158142L12.993009976158142,18.859004976158143Q14.953967976158141,18.21463197615814,16.499486976158142,16.831534976158142L16.96437897615814,16.41549897615814L16.73792197615814,15.834184976158141Q16.26668397615814,14.624515976158142,16.91479097615814,13.502021976158142Q17.563346976158144,12.378746976158142,18.84753597615814,12.182440976158142L19.46541597615814,12.087987976158143L19.592683976158142,11.476026976158142Q19.79999997615814,10.479172076158141,19.79999997615814,9.452005776158142Q19.79999997615814,8.424889476158143,19.59268997615814,7.427934576158142L19.465423976158142,6.815915476158142L18.847484976158142,6.721491176158142Q17.563362976158142,6.525271276158142,16.914802976158143,5.401990276158142Q16.266708976158142,4.279451476158142,16.73793097615814,3.069722076158142L16.964372976158142,2.4883984761581424L16.499464976158144,2.072376576158142Q14.953982976158143,0.6893993761581421,12.993026976158141,0.04498451615814214L12.399746976158141,-0.14998102384185796L12.009459976158142,0.3375332961581421Q11.197323976158142,1.351988796158142,9.899999976158142,1.351988646158142Q8.602619576158142,1.3519885261581421,7.790617776158142,0.3375754961581421L7.400336576158142,-0.14999352384185793L6.807017676158142,0.04498439615814209Q4.846004376158142,0.6894183261581421,3.300527476158142,2.072372876158142L2.835602676158142,2.4884060761581424L3.062065976158142,3.069742076158142ZM1.8729082961581422,8.359256576158142Q3.5337341761581422,7.878681576158142,4.444041876158142,6.301989876158142Q5.354215976158142,4.725513576158142,4.940112976158142,3.046828676158142Q5.812132676158142,2.3681530761581424,6.831326376158142,1.952578576158142Q8.078243176158143,3.151988576158142,9.899999976158142,3.151988576158142Q11.721684976158143,3.151988576158142,12.968690976158141,1.952570576158142Q13.987861976158142,2.368138676158142,14.859888976158143,3.046830776158142Q14.445801976158142,4.725542676158142,15.355954976158142,6.301985576158142Q16.26631097615814,7.878687276158142,17.92708797615814,8.359260876158142Q17.999999976158144,8.899980876158143,17.999999976158144,9.452005776158142Q17.999999976158144,10.004033476158142,17.92709197615814,10.544707676158142Q16.266288976158144,11.025345976158142,15.355965976158142,12.601987976158142Q14.445757976158141,14.178424976158142,14.859881976158142,15.857128976158142Q13.987848976158142,16.535870976158144,12.968688976158141,16.95142597615814Q11.721663976158142,15.752004976158142,9.899998976158143,15.752004976158142Q8.078264076158142,15.752004976158142,6.831326876158142,16.951413976158143Q5.812148476158142,16.535856976158144,4.940116776158142,15.857131976158142Q5.354258376158142,14.178454976158141,4.444031876158142,12.601985976158142Q3.533757076158142,11.025352976158143,1.8729040661581422,10.544710476158142Q1.7999999561581421,10.003936176158142,1.7999999561581421,9.452005776158142Q1.7999999561581421,8.900085776158143,1.8729082961581422,8.359256576158142ZM6.422665976158142,8.520232076158141Q6.036725876158142,9.960594576158142,6.782300376158142,11.251996976158143L6.782314176158142,11.252022976158143Q7.527933476158142,12.543409976158141,8.968257276158143,12.929345976158142Q10.408580176158143,13.315282976158143,11.699982976158141,12.569725976158143Q12.991405976158141,11.824069976158142,13.377341976158142,10.383748376158142Q13.763276976158142,8.943424576158142,13.017721976158143,7.652019876158142Q12.272062976158143,6.360596576158142,10.831747376158143,5.9746554761581425Q9.391407376158142,5.5887077761581425,8.100005076158142,6.334291376158142Q6.808611776158142,7.079851076158142,6.422665976158142,8.520232076158141ZM10.800015776158142,11.010862976158142Q9.241188376158142,11.910809976158141,8.341155876158142,10.352013976158142L8.341140676158142,10.351989176158142Q7.968363176158142,9.706283976158142,8.161333476158141,8.986101476158142Q8.354304176158141,8.265918576158143,8.999998476158142,7.893141176158142Q10.558808676158142,6.993171576158142,11.458857976158143,8.551986576158143Q12.358810976158143,10.110827776158143,10.800015776158142,11.010862976158142Z" fill-rule="evenodd" fill="#666666" fill-opacity="1"/></g></svg>