<svg xmlns="http://www.w3.org/2000/svg" xmlns:xlink="http://www.w3.org/1999/xlink" fill="none" version="1.1" width="22" height="22" viewBox="0 0 22 22"><g><path d="M11,2C6.02944,2,2,6.02944,2,11C2,15.9706,6.02944,20,11,20C15.9706,20,20,15.9706,20,11C20,6.02944,15.9706,2,11,2C11,2,11,2,11,2ZM0,11C0,4.92487,4.92487,0,11,0C17.0751,0,22,4.92487,22,11C22,17.0751,17.0751,22,11,22C4.92487,22,0,17.0751,0,11C0,11,0,11,0,11ZM11,6C11.5523,6,12,6.44772,12,7C12,7,12,10,12,10C12,10,15,10,15,10C15.5523,10,16,10.4477,16,11C16,11.5523,15.5523,12,15,12C15,12,12,12,12,12C12,12,12,15,12,15C12,15.5523,11.5523,16,11,16C10.4477,16,10,15.5523,10,15C10,15,10,12,10,12C10,12,7,12,7,12C6.44772,12,6,11.5523,6,11C6,10.4477,6.44772,10,7,10C7,10,10,10,10,10C10,10,10,7,10,7C10,6.44772,10.4477,6,11,6C11,6,11,6,11,6Z" fill-rule="evenodd" fill="#0256FF" fill-opacity="1"/></g></svg>