<svg xmlns="http://www.w3.org/2000/svg" xmlns:xlink="http://www.w3.org/1999/xlink" fill="none" version="1.1" width="20" height="20" viewBox="0 0 20 20"><g><g><path d="M10.000078046875,18.958364123535155C5.058418046875,18.958364123535155,1.041748046875,14.941664123535157,1.041748046875,9.999994123535156C1.041748046875,5.058334123535157,5.058418046875,1.0416641235351562,10.000078046875,1.0416641235351562C14.941748046875,1.0416641235351562,18.958448046875,5.058334123535157,18.958448046875,9.999994123535156C18.958448046875,14.941664123535157,14.941748046875,18.958364123535155,10.000078046875,18.958364123535155ZM10.000078046875,2.2916641235351562C5.750078046875,2.2916641235351562,2.291748046875,5.749994123535156,2.291748046875,9.999994123535156C2.291748046875,14.249964123535156,5.750078046875,17.708364123535155,10.000078046875,17.708364123535155C14.250048046875,17.708364123535155,17.708448046875,14.249964123535156,17.708448046875,9.999994123535156C17.708448046875,5.749994123535156,14.250048046875,2.2916641235351562,10.000078046875,2.2916641235351562Z" fill="#292D32" fill-opacity="1"/></g><g><path d="M7.641714828125,12.983325422363281C7.483381828125,12.983325422363281,7.325048828125,12.924995422363281,7.200048828125,12.799995422363281C6.958382128125,12.558325422363282,6.958382128125,12.15832542236328,7.200048828125,11.91666542236328C7.200048828125,11.91666542236328,11.916718828125,7.199995422363282,11.916718828125,7.199995422363282C12.158378828124999,6.958328722363281,12.558378828125,6.958328722363281,12.800048828125,7.199995422363282C13.041718828125,7.441662422363281,13.041718828125,7.8416614223632815,12.800048828125,8.08332542236328C12.800048828125,8.08332542236328,8.083378828125,12.799995422363281,8.083378828125,12.799995422363281C7.966714828125,12.924995422363281,7.800048828125,12.983325422363281,7.641714828125,12.983325422363281Z" fill="#292D32" fill-opacity="1"/></g><g><path d="M12.358378828125,12.983325422363281C12.200048828125,12.983325422363281,12.041718828125,12.924995422363281,11.916718828125,12.799995422363281C11.916718828125,12.799995422363281,7.200048828125,8.08332542236328,7.200048828125,8.08332542236328C6.958382128125,7.8416614223632815,6.958382128125,7.441662422363281,7.200048828125,7.199995422363282C7.441715828125,6.958328722363281,7.841714828125,6.958328722363281,8.083378828125,7.199995422363282C8.083378828125,7.199995422363282,12.800048828125,11.91666542236328,12.800048828125,11.91666542236328C13.041718828125,12.15832542236328,13.041718828125,12.558325422363282,12.800048828125,12.799995422363281C12.675048828125,12.924995422363281,12.516718828125,12.983325422363281,12.358378828125,12.983325422363281Z" fill="#292D32" fill-opacity="1"/></g><g style="opacity:0;"></g></g></svg>